<svg width="154" height="25" viewBox="0 0 154 25" fill="none" xmlns="http://www.w3.org/2000/svg">
<path d="M25.3446 11.4415L20.1184 15.9364L21.7107 22.6586C21.7985 23.0235 21.7759 23.4062 21.6456 23.7583C21.5154 24.1104 21.2834 24.4161 20.9789 24.6368C20.6744 24.8576 20.3111 24.9834 19.9349 24.9985C19.5587 25.0135 19.1865 24.9171 18.8653 24.7214L13.0002 21.1236L7.13173 24.7214C6.81052 24.916 6.43873 25.0115 6.06318 24.9959C5.68763 24.9803 5.3251 24.8543 5.02126 24.6337C4.71741 24.4132 4.48583 24.1079 4.35567 23.7565C4.22551 23.405 4.20259 23.023 4.28981 22.6586L5.88788 15.9364L0.66163 11.4415C0.377435 11.1967 0.1719 10.8738 0.070694 10.5133C-0.0305124 10.1527 -0.022905 9.77043 0.0925659 9.41416C0.208037 9.05789 0.426254 8.74342 0.719965 8.51003C1.01368 8.27663 1.36986 8.13466 1.74404 8.10183L8.59624 7.55082L11.2396 1.1748C11.3826 0.827307 11.6262 0.530073 11.9392 0.320884C12.2521 0.111695 12.6205 0 12.9973 0C13.3742 0 13.7425 0.111695 14.0555 0.320884C14.3685 0.530073 14.612 0.827307 14.7551 1.1748L17.3973 7.55082L24.2495 8.10183C24.6244 8.13344 24.9816 8.27462 25.2764 8.50769C25.5712 8.74076 25.7904 9.05536 25.9066 9.41206C26.0228 9.76876 26.0308 10.1517 25.9296 10.5129C25.8284 10.8741 25.6225 11.1976 25.3377 11.4426L25.3446 11.4415Z" fill="white"/>
<path d="M57.3446 11.4415L52.1184 15.9364L53.7107 22.6586C53.7985 23.0235 53.7759 23.4062 53.6456 23.7583C53.5154 24.1104 53.2834 24.4161 52.9789 24.6368C52.6744 24.8576 52.3111 24.9834 51.9349 24.9985C51.5587 25.0135 51.1865 24.9171 50.8653 24.7214L45.0002 21.1236L39.1317 24.7214C38.8105 24.916 38.4387 25.0115 38.0632 24.9959C37.6876 24.9803 37.3251 24.8543 37.0213 24.6337C36.7174 24.4132 36.4858 24.1079 36.3557 23.7565C36.2255 23.405 36.2026 23.023 36.2898 22.6586L37.8879 15.9364L32.6616 11.4415C32.3774 11.1967 32.1719 10.8738 32.0707 10.5133C31.9695 10.1527 31.9771 9.77043 32.0926 9.41416C32.208 9.05789 32.4263 8.74342 32.72 8.51003C33.0137 8.27663 33.3699 8.13466 33.744 8.10183L40.5962 7.55082L43.2396 1.1748C43.3826 0.827307 43.6262 0.530073 43.9392 0.320884C44.2521 0.111695 44.6205 0 44.9973 0C45.3742 0 45.7425 0.111695 46.0555 0.320884C46.3685 0.530073 46.612 0.827307 46.7551 1.1748L49.3973 7.55082L56.2495 8.10183C56.6244 8.13344 56.9816 8.27462 57.2764 8.50769C57.5712 8.74076 57.7904 9.05536 57.9066 9.41206C58.0228 9.76876 58.0308 10.1517 57.9296 10.5129C57.8284 10.8741 57.6225 11.1976 57.3377 11.4426L57.3446 11.4415Z" fill="white"/>
<path d="M89.3446 11.4415L84.1184 15.9364L85.7107 22.6586C85.7985 23.0235 85.7759 23.4062 85.6456 23.7583C85.5154 24.1104 85.2834 24.4161 84.9789 24.6368C84.6744 24.8576 84.3111 24.9834 83.9349 24.9985C83.5587 25.0135 83.1865 24.9171 82.8653 24.7214L77.0002 21.1236L71.1317 24.7214C70.8105 24.916 70.4387 25.0115 70.0632 24.9959C69.6876 24.9803 69.3251 24.8543 69.0213 24.6337C68.7174 24.4132 68.4858 24.1079 68.3557 23.7565C68.2255 23.405 68.2026 23.023 68.2898 22.6586L69.8879 15.9364L64.6616 11.4415C64.3774 11.1967 64.1719 10.8738 64.0707 10.5133C63.9695 10.1527 63.9771 9.77043 64.0926 9.41416C64.208 9.05789 64.4263 8.74342 64.72 8.51003C65.0137 8.27663 65.3699 8.13466 65.744 8.10183L72.5962 7.55082L75.2396 1.1748C75.3826 0.827307 75.6262 0.530073 75.9392 0.320884C76.2521 0.111695 76.6205 0 76.9973 0C77.3742 0 77.7425 0.111695 78.0555 0.320884C78.3685 0.530073 78.612 0.827307 78.7551 1.1748L81.3973 7.55082L88.2495 8.10183C88.6244 8.13344 88.9816 8.27462 89.2764 8.50769C89.5712 8.74076 89.7904 9.05536 89.9066 9.41206C90.0228 9.76876 90.0308 10.1517 89.9296 10.5129C89.8284 10.8741 89.6225 11.1976 89.3377 11.4426L89.3446 11.4415Z" fill="white"/>
<path d="M121.345 11.4415L116.118 15.9364L117.711 22.6586C117.799 23.0235 117.776 23.4062 117.646 23.7583C117.515 24.1104 117.283 24.4161 116.979 24.6368C116.674 24.8576 116.311 24.9834 115.935 24.9985C115.559 25.0135 115.187 24.9171 114.865 24.7214L109 21.1236L103.132 24.7214C102.811 24.916 102.439 25.0115 102.063 24.9959C101.688 24.9803 101.325 24.8543 101.021 24.6337C100.717 24.4132 100.486 24.1079 100.356 23.7565C100.226 23.405 100.203 23.023 100.29 22.6586L101.888 15.9364L96.6616 11.4415C96.3774 11.1967 96.1719 10.8738 96.0707 10.5133C95.9695 10.1527 95.9771 9.77043 96.0926 9.41416C96.208 9.05789 96.4263 8.74342 96.72 8.51003C97.0137 8.27663 97.3699 8.13466 97.744 8.10183L104.596 7.55082L107.24 1.1748C107.383 0.827307 107.626 0.530073 107.939 0.320884C108.252 0.111695 108.62 0 108.997 0C109.374 0 109.743 0.111695 110.056 0.320884C110.368 0.530073 110.612 0.827307 110.755 1.1748L113.397 7.55082L120.249 8.10183C120.624 8.13344 120.982 8.27462 121.276 8.50769C121.571 8.74076 121.79 9.05536 121.907 9.41206C122.023 9.76876 122.031 10.1517 121.93 10.5129C121.828 10.8741 121.622 11.1976 121.338 11.4426L121.345 11.4415Z" fill="white"/>
<path d="M153.345 11.4415L148.118 15.9364L149.711 22.6586C149.799 23.0235 149.776 23.4062 149.646 23.7583C149.515 24.1104 149.283 24.4161 148.979 24.6368C148.674 24.8576 148.311 24.9834 147.935 24.9985C147.559 25.0135 147.187 24.9171 146.865 24.7214L141 21.1236L135.132 24.7214C134.811 24.916 134.439 25.0115 134.063 24.9959C133.688 24.9803 133.325 24.8543 133.021 24.6337C132.717 24.4132 132.486 24.1079 132.356 23.7565C132.226 23.405 132.203 23.023 132.29 22.6586L133.888 15.9364L128.662 11.4415C128.377 11.1967 128.172 10.8738 128.071 10.5133C127.969 10.1527 127.977 9.77043 128.093 9.41416C128.208 9.05789 128.426 8.74342 128.72 8.51003C129.014 8.27663 129.37 8.13466 129.744 8.10183L136.596 7.55082L139.24 1.1748C139.383 0.827307 139.626 0.530073 139.939 0.320884C140.252 0.111695 140.62 0 140.997 0C141.374 0 141.743 0.111695 142.056 0.320884C142.368 0.530073 142.612 0.827307 142.755 1.1748L145.397 7.55082L152.249 8.10183C152.624 8.13344 152.982 8.27462 153.276 8.50769C153.571 8.74076 153.79 9.05536 153.907 9.41206C154.023 9.76876 154.031 10.1517 153.93 10.5129C153.828 10.8741 153.622 11.1976 153.338 11.4426L153.345 11.4415Z" fill="white"/>
</svg>
