<svg width="200" height="200" viewBox="0 0 200 200" fill="none" xmlns="http://www.w3.org/2000/svg">
<path d="M50 16.6667H116.667V33.3333H50V16.6667ZM33.3333 50V33.3333H50V50H33.3333ZM33.3333 116.667H16.6667V50H33.3333V116.667ZM50 133.333H33.3333V116.667H50V133.333ZM116.667 133.333V150H50V133.333H116.667ZM133.333 116.667H116.667V133.333H133.333V150H150V166.667H166.667V183.333H183.333V166.667H166.667V150H150V133.333H133.333V116.667ZM133.333 50H150V116.667H133.333V50ZM133.333 50V33.3333H116.667V50H133.333Z" fill="#D72CA7"/>
</svg>
