<svg width="146" height="25" viewBox="0 0 146 25" fill="none" xmlns="http://www.w3.org/2000/svg">
<path d="M21.9781 13.0146L21.9829 13.0138L19.4663 15.1783L19.0051 15.5749L19.1453 16.1669L20.7376 22.8891L20.7384 22.8926C20.7799 23.0647 20.7692 23.2452 20.7078 23.4113C20.6463 23.5775 20.5366 23.7224 20.392 23.8272C20.2473 23.9321 20.0744 23.9921 19.895 23.9993C19.7159 24.0064 19.539 23.9606 19.3865 23.868C19.3862 23.8678 19.3859 23.8676 19.3855 23.8674L13.5231 20.2712L13.0004 19.9505L12.4776 20.2711L6.61361 23.8661C6.61299 23.8665 6.61237 23.8668 6.61175 23.8672C6.45945 23.959 6.28307 24.0041 6.10469 23.9967C5.9256 23.9893 5.75302 23.9292 5.60868 23.8244C5.46438 23.7197 5.35487 23.5751 5.29343 23.4092C5.232 23.2433 5.22122 23.0632 5.26235 22.8913L5.2627 22.8899L6.86077 16.1677L7.0016 15.5753L6.53995 15.1783L1.3143 10.6838C1.31423 10.6838 1.31416 10.6837 1.31408 10.6837C1.17881 10.5671 1.0814 10.4137 1.03348 10.243C0.985551 10.0723 0.989146 9.89126 1.04385 9.72248C1.09856 9.55368 1.20211 9.40417 1.3421 9.29294C1.48134 9.18229 1.65041 9.11448 1.82846 9.09827L8.6764 8.5476L9.28585 8.49859L9.52001 7.93378L12.1633 1.55776L12.1643 1.55553C12.2316 1.39191 12.3465 1.25141 12.4948 1.15229C12.6432 1.05314 12.8181 1 12.9973 1C13.1766 1 13.3515 1.05314 13.4998 1.15229C13.6481 1.25141 13.763 1.39191 13.8304 1.55553L13.8313 1.55762L16.4734 7.93364L16.7075 8.49858L17.3171 8.5476L24.1655 9.0983C24.166 9.09834 24.1665 9.09839 24.167 9.09843C24.3459 9.11382 24.516 9.18133 24.6562 9.29212C24.7967 9.4032 24.9007 9.55277 24.9557 9.72178C25.0108 9.89076 25.0146 10.0721 24.9666 10.2431C24.9187 10.4142 24.821 10.5679 24.6854 10.6847L21.9781 13.0146Z" fill="white" stroke="white" stroke-width="2"/>
<path d="M51.9781 13.0146L51.9829 13.0138L49.4663 15.1783L49.0051 15.5749L49.1453 16.1669L50.7376 22.8891L50.7384 22.8926C50.7799 23.0647 50.7692 23.2452 50.7078 23.4113C50.6463 23.5775 50.5366 23.7224 50.392 23.8272C50.2473 23.9321 50.0744 23.9921 49.895 23.9993C49.7159 24.0064 49.539 23.9606 49.3865 23.868C49.3862 23.8678 49.3859 23.8676 49.3855 23.8674L43.5231 20.2712L43.0004 19.9505L42.4776 20.2711L36.6136 23.8661C36.613 23.8665 36.6124 23.8668 36.6117 23.8672C36.4594 23.959 36.2831 24.0041 36.1047 23.9967C35.9256 23.9893 35.753 23.9292 35.6087 23.8244C35.4644 23.7197 35.3549 23.5751 35.2934 23.4092C35.232 23.2433 35.2212 23.0632 35.2623 22.8913L35.2627 22.8899L36.8608 16.1677L37.0016 15.5753L36.54 15.1783L31.3143 10.6838C31.3142 10.6838 31.3142 10.6837 31.3141 10.6837C31.1788 10.5671 31.0814 10.4137 31.0335 10.243C30.9856 10.0723 30.9891 9.89126 31.0438 9.72248C31.0986 9.55368 31.2021 9.40417 31.3421 9.29294C31.4813 9.18229 31.6504 9.11448 31.8285 9.09827L38.6764 8.5476L39.2859 8.49859L39.52 7.93378L42.1633 1.55776L42.1643 1.55553C42.2316 1.39191 42.3465 1.25141 42.4948 1.15229C42.6432 1.05314 42.8181 1 42.9973 1C43.1766 1 43.3515 1.05314 43.4998 1.15229C43.6481 1.25141 43.763 1.39191 43.8304 1.55553L43.8313 1.55762L46.4734 7.93364L46.7075 8.49858L47.3171 8.5476L54.1655 9.0983C54.166 9.09834 54.1665 9.09839 54.167 9.09843C54.3459 9.11382 54.516 9.18133 54.6562 9.29212C54.7967 9.4032 54.9007 9.55277 54.9557 9.72178C55.0108 9.89076 55.0146 10.0721 54.9666 10.2431C54.9187 10.4142 54.821 10.5679 54.6854 10.6847L51.9781 13.0146Z" fill="white" stroke="white" stroke-width="2"/>
<path d="M81.9781 13.0146L81.9829 13.0138L79.4663 15.1783L79.0051 15.5749L79.1453 16.1669L80.7376 22.8891L80.7384 22.8926C80.7799 23.0647 80.7692 23.2452 80.7078 23.4113C80.6463 23.5775 80.5366 23.7224 80.392 23.8272C80.2473 23.9321 80.0744 23.9921 79.895 23.9993C79.7159 24.0064 79.539 23.9606 79.3865 23.868C79.3862 23.8678 79.3859 23.8676 79.3855 23.8674L73.5231 20.2712L73.0004 19.9505L72.4776 20.2711L66.6136 23.8661C66.613 23.8665 66.6124 23.8668 66.6117 23.8672C66.4594 23.959 66.2831 24.0041 66.1047 23.9967C65.9256 23.9893 65.753 23.9292 65.6087 23.8244C65.4644 23.7197 65.3549 23.5751 65.2934 23.4092C65.232 23.2433 65.2212 23.0632 65.2623 22.8913L65.2627 22.8899L66.8608 16.1677L67.0016 15.5753L66.54 15.1783L61.3143 10.6838C61.3142 10.6838 61.3142 10.6837 61.3141 10.6837C61.1788 10.5671 61.0814 10.4137 61.0335 10.243C60.9856 10.0723 60.9891 9.89126 61.0438 9.72248C61.0986 9.55368 61.2021 9.40417 61.3421 9.29294C61.4813 9.18229 61.6504 9.11448 61.8285 9.09827L68.6764 8.5476L69.2859 8.49859L69.52 7.93378L72.1633 1.55776L72.1643 1.55553C72.2316 1.39191 72.3465 1.25141 72.4948 1.15229C72.6432 1.05314 72.8181 1 72.9973 1C73.1766 1 73.3515 1.05314 73.4998 1.15229C73.6481 1.25141 73.763 1.39191 73.8304 1.55553L73.8313 1.55762L76.4734 7.93364L76.7075 8.49858L77.3171 8.5476L84.1655 9.0983C84.166 9.09834 84.1665 9.09839 84.167 9.09843C84.3459 9.11382 84.516 9.18133 84.6562 9.29212C84.7967 9.4032 84.9007 9.55277 84.9557 9.72178C85.0108 9.89076 85.0146 10.0721 84.9666 10.2431C84.9187 10.4142 84.821 10.5679 84.6854 10.6847L81.9781 13.0146Z" fill="white" stroke="white" stroke-width="2"/>
<path d="M111.978 13.0146L111.983 13.0138L109.466 15.1783L109.005 15.5749L109.145 16.1669L110.738 22.8891L110.738 22.8926C110.78 23.0647 110.769 23.2452 110.708 23.4113C110.646 23.5775 110.537 23.7224 110.392 23.8272C110.247 23.9321 110.074 23.9921 109.895 23.9993C109.716 24.0064 109.539 23.9606 109.387 23.868C109.386 23.8678 109.386 23.8676 109.386 23.8674L103.523 20.2712L103 19.9505L102.478 20.2711L96.6136 23.8661C96.613 23.8665 96.6124 23.8668 96.6117 23.8672C96.4594 23.959 96.2831 24.0041 96.1047 23.9967C95.9256 23.9893 95.753 23.9292 95.6087 23.8244C95.4644 23.7197 95.3549 23.5751 95.2934 23.4092C95.232 23.2433 95.2212 23.0632 95.2623 22.8913L95.2627 22.8899L96.8608 16.1677L97.0016 15.5753L96.54 15.1783L91.3143 10.6838C91.3142 10.6838 91.3142 10.6837 91.3141 10.6837C91.1788 10.5671 91.0814 10.4137 91.0335 10.243C90.9856 10.0723 90.9891 9.89126 91.0438 9.72248C91.0986 9.55368 91.2021 9.40417 91.3421 9.29294C91.4813 9.18229 91.6504 9.11448 91.8285 9.09827L98.6764 8.5476L99.2859 8.49859L99.52 7.93378L102.163 1.55776L102.164 1.55553C102.232 1.39191 102.347 1.25141 102.495 1.15229C102.643 1.05314 102.818 1 102.997 1C103.177 1 103.351 1.05314 103.5 1.15229C103.648 1.25141 103.763 1.39191 103.83 1.55553L103.831 1.55762L106.473 7.93364L106.708 8.49858L107.317 8.5476L114.165 9.0983C114.166 9.09834 114.166 9.09839 114.167 9.09843C114.346 9.11382 114.516 9.18133 114.656 9.29212C114.797 9.4032 114.901 9.55277 114.956 9.72178C115.011 9.89076 115.015 10.0721 114.967 10.2431C114.919 10.4142 114.821 10.5679 114.685 10.6847L111.978 13.0146Z" fill="white" stroke="white" stroke-width="2"/>
<path d="M141.978 13.0146L141.983 13.0138L139.466 15.1783L139.005 15.5749L139.145 16.1669L140.738 22.8891L140.738 22.8926C140.78 23.0647 140.769 23.2452 140.708 23.4113C140.646 23.5775 140.537 23.7224 140.392 23.8272C140.247 23.9321 140.074 23.9921 139.895 23.9993C139.716 24.0064 139.539 23.9606 139.387 23.868C139.386 23.8678 139.386 23.8676 139.386 23.8674L133.523 20.2712L133 19.9505L132.478 20.2711L126.614 23.8661C126.613 23.8665 126.612 23.8668 126.612 23.8672C126.459 23.959 126.283 24.0041 126.105 23.9967C125.926 23.9893 125.753 23.9292 125.609 23.8244C125.464 23.7197 125.355 23.5751 125.293 23.4092C125.232 23.2433 125.221 23.0632 125.262 22.8913L125.263 22.8899L126.861 16.1677L127.002 15.5753L126.54 15.1783L121.314 10.6838C121.314 10.6838 121.314 10.6837 121.314 10.6837C121.179 10.5671 121.081 10.4137 121.033 10.243C120.986 10.0723 120.989 9.89126 121.044 9.72248C121.099 9.55368 121.202 9.40417 121.342 9.29294C121.481 9.18229 121.65 9.11448 121.828 9.09827L128.676 8.5476L129.286 8.49859L129.52 7.93378L132.163 1.55776L132.164 1.55553C132.232 1.39191 132.347 1.25141 132.495 1.15229C132.643 1.05314 132.818 1 132.997 1C133.177 1 133.351 1.05314 133.5 1.15229C133.648 1.25141 133.763 1.39191 133.83 1.55553L133.831 1.55762L136.473 7.93364L136.708 8.49858L137.317 8.5476L144.165 9.0983C144.166 9.09834 144.166 9.09839 144.167 9.09843C144.346 9.11382 144.516 9.18133 144.656 9.29212C144.797 9.4032 144.901 9.55277 144.956 9.72178C145.011 9.89076 145.015 10.0721 144.967 10.2431C144.919 10.4142 144.821 10.5679 144.685 10.6847L141.978 13.0146Z" stroke="white" stroke-width="2"/>
</svg>
